# xmcd
#
# Track frame offsets: 
#        150
#        11061
#        23762
#        40032
#        54776
#        69859
#        79623
#        91906
#        103861
#        115742
#        128397
#        141444
#        154210
#        166423
#        179893
#        193798
#        205506
#        217077
#        228357
#        237745
#        251656
#        262624
#        277696
#        293451
#
# Disc length: 4063 seconds
#
# Revision: 1
# Processed by: cddbd v1.5.2PL0 Copyright (c) Steve Scherf et al.
# Submitted via: ExactAudioCopyFreeDBPlugin 1.0
#
DISCID=420fdd18
DTITLE=George Jackson - The Fame Recordings
DYEAR=2013
DGENRE=Soul
TTITLE0=It's Up to His Woman
TTITLE1=I'm Holding On
TTITLE2=I'm in the Middle of a Good Thing
TTITLE3=It Ain't Nothin' Like When
TTITLE4=Break Away from Me
TTITLE5=Don't Let a Good Thing Go to Waste
TTITLE6=I Got My Own Style of Lovin'
TTITLE7=Just Another Day
TTITLE8=Superstitious Woman
TTITLE9=If You Ain't Here
TTITLE10=You Got to Make a Decision
TTITLE11=We Got the Perfect Love
TTITLE12=Doesn't it Make Sense to You
TTITLE13=All He Can Do is Love You
TTITLE14=Heart on a String
TTITLE15=Bad Case of Love
TTITLE16=Add a Little Sunshine
TTITLE17=Your Love Caught Me Off Guard
TTITLE18=Gotta Have Soul
TTITLE19=Old Friend (You Ask Me If I Miss Her)
TTITLE20=Switch Tracks
TTITLE21=Two Legs and a Red Dress
TTITLE22=That from the Heart
TTITLE23=Won't Nobody Cha-Cha with Me (home demo)
EXTD=It's Up To His Woman\nI'm Holding On\nI'm In The Middle Of A Good
EXTD=Thing\nIt Ain't Nothin' Like When\nBreak Away From Me\nDon't Let
EXTD=A Good Thing Go To Waste\nI Got My Own Style Of Lovin'\nJust Ano
EXTD=ther Day\nSuperstitious Woman\nIf You Ain't Here\nYou Got To Make
EXTD=A Decision\nWe Got The Perfect Love\nDoesn't It Make Sense To Yo
EXTD=u\nAll He Can Do Is Love You\nHeart On A String\nBad Case Of Love
EXTD=\nAdd A Little Sunshine\nYour Love Caught Me Off Guard\nGotta Hav
EXTD=e Soul\nOld Friend (You Ask Me If I Miss Her]\nSwitch Tracks\nTwo
EXTD=Legs And a Red Dress\nThat From The Heart\nWon't Nobody Cha-Cha 
EXTD=With Me (Home demo)
EXTT0=
EXTT1=
EXTT2=
EXTT3=
EXTT4=
EXTT5=
EXTT6=
EXTT7=
EXTT8=
EXTT9=
EXTT10=
EXTT11=
EXTT12=
EXTT13=
EXTT14=
EXTT15=
EXTT16=
EXTT17=
EXTT18=
EXTT19=
EXTT20=
EXTT21=
EXTT22=
EXTT23=
PLAYORDER=
